<?xml version="1.0" encoding="UTF-8" standalone="no"?>
<!-- Created with Inkscape (http://www.inkscape.org/) -->

<svg
   version="1.1"
   id="svg1"
   width="1024"
   height="1024"
   viewBox="0 0 1024 1024"
   sodipodi:docname="logo_svg_3.svg"
   inkscape:version="1.4 (e7c3feb, 2024-10-09)"
   xml:space="preserve"
   xmlns:inkscape="http://www.inkscape.org/namespaces/inkscape"
   xmlns:sodipodi="http://sodipodi.sourceforge.net/DTD/sodipodi-0.dtd"
   xmlns:xlink="http://www.w3.org/1999/xlink"
   xmlns="http://www.w3.org/2000/svg"
   xmlns:svg="http://www.w3.org/2000/svg"><defs
     id="defs1"><linearGradient
       id="linearGradient5158"
       inkscape:collect="always"><stop
         style="stop-color:#28c9ca;stop-opacity:1;"
         offset="0"
         id="stop5158" /><stop
         style="stop-color:#600e7d;stop-opacity:1;"
         offset="0.84029412"
         id="stop5159" /></linearGradient><filter
       inkscape:collect="always"
       style="color-interpolation-filters:sRGB"
       id="filter5129"
       x="-0.016278188"
       y="-0.016309422"
       width="1.0325564"
       height="1.0326256"><feGaussianBlur
         inkscape:collect="always"
         stdDeviation="0.3367638"
         id="feGaussianBlur5129" /></filter><linearGradient
       inkscape:collect="always"
       xlink:href="#linearGradient5158"
       id="linearGradient5159"
       x1="412.10388"
       y1="345.3512"
       x2="695.89612"
       y2="750.64856"
       gradientUnits="userSpaceOnUse" /></defs><sodipodi:namedview
     id="namedview1"
     pagecolor="#ffffff"
     bordercolor="#000000"
     borderopacity="0.25"
     inkscape:showpageshadow="2"
     inkscape:pageopacity="0.0"
     inkscape:pagecheckerboard="0"
     inkscape:deskcolor="#d1d1d1"
     inkscape:zoom="0.70710678"
     inkscape:cx="564.27121"
     inkscape:cy="479.4184"
     inkscape:window-width="1233"
     inkscape:window-height="754"
     inkscape:window-x="694"
     inkscape:window-y="81"
     inkscape:window-maximized="0"
     inkscape:current-layer="layer1" /><g
     id="g5157"
     transform="translate(-42.485281,-21.656854)"
     style="stroke:#000000;stroke-width:10;stroke-dasharray:none;stroke-opacity:1;stroke-linejoin:round;stroke-linecap:round"><g
       inkscape:groupmode="layer"
       id="layer1"
       inkscape:label="Layer 1"
       style="stroke:#000000;stroke-width:10;stroke-dasharray:none;stroke-opacity:1;stroke-linejoin:round;stroke-linecap:round"><g
         id="g5158"
         style="stroke-width:14;stroke-dasharray:none;stroke-linecap:round;stroke-linejoin:round;stroke:url(#linearGradient5159)"><path
           style="fill:none;stroke:url(#linearGradient5159);stroke-width:14;stroke-linecap:round;stroke-linejoin:round;stroke-dasharray:none;stroke-opacity:1;paint-order:stroke fill markers;filter:url(#filter5129)"
           d="M 483.6328,731.13124 C 417.29242,726.8443 354.42135,694.29689 311.95071,642.2539 283.66264,607.58959 266.66673,569.06665 259.80825,524.06628 l -1.73797,-11.4036 0.12362,-22.80721 0.12362,-22.80733 2.18527,-13.52829 c 4.34446,-26.89114 11.80774,-49.29611 24.6164,-73.8996 33.69642,-64.72441 97.51662,-111.38853 170.05865,-124.34339 l 13.23502,-2.36352 31.10205,0.053 31.10242,0.053 13.70656,2.84898 c 44.80765,9.31359 82.1888,27.99959 114.37007,57.17087 42.30528,38.34807 68.55693,87.22413 77.02165,143.4008 l 2.02925,13.46693 -0.0238,21.3775 -0.0238,21.37765 -1.95328,13.15611 c -3.47389,23.39828 -9.54062,44.52928 -18.77771,65.40227 -5.7131,12.91045 -20.23672,37.37858 -22.18682,37.37858 -0.81741,0 -6.32231,-5.15246 -12.23349,-11.44994 l -10.7473,-11.44987 7.66694,-15.47532 C 707.2995,534.04185 710.879,475.46312 689.94731,418.68738 665.00287,351.02816 606.98645,302.49689 534.61972,288.7544 l -14.58984,-2.77039 -21.83766,-0.0127 -21.83765,-0.0127 -11.91148,2.11366 c -12.92528,2.29363 -35.25803,8.17839 -36.36887,9.58367 -0.379,0.47941 -1.88029,1.0609 -3.33618,1.29213 -4.07508,0.64759 -27.1318,11.69194 -27.1318,12.99635 0,0.63488 -0.48538,1.0119 -1.07864,0.83755 -1.70738,-0.50137 -13.23094,6.76706 -24.32245,15.34166 -42.9333,33.1913 -71.27089,83.16017 -77.87693,137.32453 l -1.6594,13.60501 0.73911,19.33871 0.7391,19.33887 2.84075,13.78382 c 6.1133,29.66198 19.32412,59.51529 36.79469,83.14705 11.34445,15.3453 33.12503,36.21638 49.26556,47.20818 22.96705,15.64076 52.87711,27.93113 81.44309,33.46548 l 11.86345,2.2985 25.80827,-0.0228 25.80826,-0.0228 11.24971,-2.31175 c 15.93086,-3.27365 34.58984,-9.16136 47.17459,-14.88541 5.93713,-2.70033 11.3007,-4.8605 11.91949,-4.80037 0.61881,0.0598 6.07864,5.46958 12.13263,12.02075 l 11.00753,11.91134 -0.84896,1.31502 c -1.91309,2.96341 -29.87666,14.96384 -47.61761,20.43465 -27.01108,8.32961 -58.77852,11.83461 -89.35481,9.85878 z"
           id="path5085-2"
           transform="translate(53.84965,55.70739)" /><path
           style="fill:none;stroke:url(#linearGradient5159);stroke-width:14;stroke-linecap:round;stroke-linejoin:round;stroke-dasharray:none;stroke-opacity:1;paint-order:stroke fill markers"
           d="m 680.17241,710.07358 c -15.12454,-16.21452 -49.9567,-53.05089 -106.9933,-113.15072 -44.19681,-46.57055 -87.7316,-91.94836 -88.53647,-92.28499 -0.55541,-0.23231 -1.00984,-1.5151 -1.00984,-2.85083 v -2.42865 l 13.5659,0.16574 c 7.46144,0.0905 17.79161,0.51867 22.95601,0.95024 l 9.39046,0.78473 27.69199,29.14254 c 69.4536,73.091 129.88289,137.04927 169.59985,179.5037 8.91089,9.52524 16.20164,17.93543 16.20164,18.68934 v 1.37061 l -22.16854,-0.0138 -22.16854,-0.0138 z"
           id="path5120-3"
           transform="translate(53.84965,55.70739)" /></g></g></g></svg>
