<?xml version="1.0" encoding="UTF-8" standalone="no"?>
<!-- Created with Inkscape (http://www.inkscape.org/) -->

<svg
   version="1.1"
   id="svg1"
   width="1024"
   height="1024"
   viewBox="0 0 1024 1024"
   xml:space="preserve"
   xmlns:xlink="http://www.w3.org/1999/xlink"
   xmlns="http://www.w3.org/2000/svg"
   xmlns:svg="http://www.w3.org/2000/svg"><defs
     id="defs1"><linearGradient
       id="linearGradient8"><stop
         style="stop-color:#03b0dd;stop-opacity:1;"
         offset="0"
         id="stop7" /><stop
         style="stop-color:#17ad29;stop-opacity:1;"
         offset="0.58256674"
         id="stop9" /><stop
         style="stop-color:#866d00;stop-opacity:1;"
         offset="1"
         id="stop8" /></linearGradient><linearGradient
       id="linearGradient5"><stop
         style="stop-color:#000000;stop-opacity:1;"
         offset="0"
         id="stop4" /><stop
         style="stop-color:#008eff;stop-opacity:1;"
         offset="0.5"
         id="stop6" /><stop
         style="stop-color:#75ff00;stop-opacity:1;"
         offset="1"
         id="stop5" /></linearGradient><linearGradient
       id="linearGradient1"><stop
         style="stop-color:#000000;stop-opacity:1;"
         offset="0"
         id="stop1" /><stop
         style="stop-color:#000000;stop-opacity:1;"
         offset="1"
         id="stop2" /></linearGradient><linearGradient
       xlink:href="#linearGradient1"
       id="linearGradient2"
       x1="363.08954"
       y1="314.65042"
       x2="676.89612"
       y2="702.16925"
       gradientUnits="userSpaceOnUse" /><linearGradient
       xlink:href="#linearGradient8"
       id="linearGradient3"
       gradientUnits="userSpaceOnUse"
       x1="502.60101"
       y1="259.69543"
       x2="496.85995"
       y2="751.98676" /><linearGradient
       xlink:href="#linearGradient5"
       id="linearGradient4"
       gradientUnits="userSpaceOnUse"
       x1="363.08954"
       y1="314.65042"
       x2="676.89612"
       y2="702.16925" /></defs><g
     id="g2"
     style="fill:url(#linearGradient2)"><g
       id="g1"
       style="fill:url(#linearGradient4)"
       transform="matrix(1.4038082,0,0,1.4135706,-210.97298,-165.85887)"><path
         id="path1"
         style="fill:url(#linearGradient3);stroke-width:1.00023;stroke-dasharray:none;paint-order:fill markers stroke"
         d="m 513.10471,225.52271 c -13.85947,0.2739 -27.46006,1.21091 -35.85114,2.71227 -53.29154,9.53513 -96.19746,31.24195 -133.60699,67.59396 -38.17377,37.09464 -62.08223,83.10669 -70.68802,136.04042 -2.52628,15.539 -3.09058,54.61779 -1.03235,71.50001 12.10608,99.29795 82.65589,181.91394 178.85083,209.43749 11.96789,3.42428 33.2396,7.44389 44.73184,8.45322 58.47125,5.13535 112.4896,-8.44632 160.49952,-40.3552 59.2325,-39.36776 98.12292,-99.79628 109.19934,-169.67505 2.56381,-16.17435 2.54651,-60.48721 -0.0306,-76.6565 -4.15786,-26.08709 -10.81374,-47.41502 -22.0814,-70.75527 -36.5454,-75.70152 -108.29737,-126.75475 -192.58718,-137.03109 -9.42646,-1.14924 -23.54437,-1.53816 -37.40384,-1.26426 z m 6.90366,14.37102 c 26.17394,0.026 36.03223,1.13726 57.49984,6.48016 77.50569,19.28979 139.20089,76.3415 163.90822,151.57344 8.73249,26.58979 11.61239,45.54519 11.53809,75.92282 -0.0607,24.81685 -1.48027,36.66567 -6.95096,57.99946 -4.39936,17.15593 -8.11291,27.09313 -16.44244,44.00011 -36.86409,74.82532 -112.77936,126.74457 -191.80249,131.17547 l -11.25009,0.63005 v -12.46842 c 0,-20.89181 2.57599,-29.51075 11.46157,-38.34898 5.9374,-5.90575 12.4622,-9.49667 29.80453,-16.40349 35.39623,-14.09703 54.40167,-26.5925 70.59619,-46.4167 18.6925,-22.88206 29.67175,-47.7915 35.7774,-81.16774 1.89114,-10.33784 2.85088,-34.47991 1.45114,-36.50027 -1.16078,-1.67544 0.96026,-2.35239 -41.59028,13.26981 -12.65,4.64439 -25.47587,9.60143 -28.50087,11.01488 l -5.49983,2.56996 -0.63861,-9.17723 c -0.35136,-5.04743 -1.40202,-12.10172 -2.33461,-15.67672 -4.11713,-15.78271 -16.04426,-33.48276 -31.23479,-46.35038 -8.35291,-7.0756 -27.16139,-20.15593 -30.50992,-21.21871 -2.89389,-0.91849 -2.12734,-1.93749 4.46887,-5.94267 27.70162,-16.82025 49.52119,-38.27634 59.98888,-58.98875 8.53924,-16.89661 12.50298,-48.05007 6.71027,-52.74073 -2.6398,-2.13758 -6.77724,-2.26942 -9.58331,-0.30397 -1.83096,1.28245 -2.16136,2.88675 -2.78122,13.48397 -1.34132,22.93185 -8.11354,38.58764 -24.21566,55.97942 -10.21298,11.03096 -29.61198,25.63913 -47.90958,36.07885 l -4.04035,2.30605 -12.10435,-7.5261 c -23.70538,-14.74024 -38.62286,-27.9111 -48.5774,-42.88646 -9.46199,-14.23438 -12.62532,-23.9308 -13.54853,-41.53793 -0.78527,-14.97642 -1.85942,-17.35273 -7.84417,-17.35273 -6.846,0 -9.05472,5.50231 -7.9847,19.89781 2.69964,36.31942 23.60638,65.3244 65.4901,90.85757 5.85698,3.57053 10.79672,6.62166 10.9774,6.77999 0.18067,0.15834 -1.84381,1.53476 -4.49948,3.05907 -33.40153,19.17185 -54.77663,43.12478 -61.93671,69.40536 -2.49732,9.16702 -2.49786,29.03192 -10e-4,38.49958 0.0391,0.14824 0.0885,0.28221 0.128,0.42971 -9.82594,-7.40149 -20.28939,-13.14344 -31.30435,-16.52232 -43.33468,-13.2931 -43.8535,-15.80052 -45.01428,-14.12508 -1.39974,2.02036 -0.44,26.16104 1.45114,36.49888 6.10565,33.37624 17.08629,58.28568 35.77879,81.16774 16.19452,19.8242 35.19857,32.31967 70.5948,46.4167 17.34233,6.90682 22.77579,11.85215 29.80453,16.40488 11.6817,7.56659 12.27658,31.98634 13.27583,37.22703 l -7.19583,-0.10086 C 476.33396,706.86174 434.57848,694.79211 405.34399,678.33907 345.10143,644.43483 302.02211,585.30599 289.15891,518.86923 c -6.86346,-35.44886 -5.88571,-73.36595 2.74643,-106.49975 16.65424,-63.92605 61.28177,-118.54365 121.15343,-148.27396 18.89018,-9.38025 33.74296,-14.63671 54.05358,-19.13096 19.46129,-4.30632 27.69357,-5.09593 52.89602,-5.07083 z m -0.99896,70.49414 c -54.85899,0.0118 -54.52565,-0.0184 -57.47063,5.2463 -1.37364,2.4556 -1.37364,3.01592 0,5.47152 0.84162,1.50455 2.64162,3.29746 4,3.98481 3.5781,1.81079 103.37197,1.80536 106.95099,-0.006 5.51616,-2.79104 5.8546,-9.62517 0.63444,-12.80832 -2.95309,-1.80071 -5.76424,-1.89918 -54.1148,-1.88878 z m 1.42609,39.19181 c -26.39417,-0.24867 -31.30456,-0.0661 -33.88245,1.26702 -5.19165,2.68471 -5.35475,10.20457 -0.28104,12.95754 4.01655,2.17936 60.97642,2.26873 65.16593,0.10225 4.61805,-2.38809 5.65605,-8.79064 1.9673,-12.13129 -1.95718,-1.77247 -4.24961,-1.92494 -32.96974,-2.19552 z m -1.32314,68.4741 10.94818,6.83939 c 20.51447,12.81663 31.99849,22.15566 39.93462,32.47677 9.99752,13.00199 14.5428,25.15929 14.6087,39.0716 0.0678,14.31094 -0.10586,14.71167 -8.88626,20.43529 -27.01745,17.61169 -42.92776,35.82885 -52.64976,60.28616 -2.03177,5.11128 -4.71245,13.83126 -5.95617,19.37691 l -2.26087,10.08223 -3.59374,-7.56755 c -5.81283,-12.24017 -11.18456,-19.2172 -28.24071,-36.68403 -8.86164,-9.075 -17.57755,-18.64493 -19.36835,-21.26568 -15.61084,-22.84569 -17.44266,-49.4251 -4.9447,-71.74734 9.44706,-16.87312 27.35311,-32.43938 56.35759,-48.99218 z m 0.48974,39.31616 c -21.56016,0 -31.78119,0.35692 -33.5694,1.17168 -5.04036,2.29654 -4.56371,10.03718 0.76105,12.35236 3.99862,1.73858 58.89824,2.11711 63.31828,0.43662 5.67582,-2.15795 7.02327,-7.42611 2.94261,-11.50677 l -2.45427,-2.45389 z m -0.50087,36.93688 c -22.45415,0.0325 -44.86122,0.48519 -46.5127,1.32781 -3.48179,1.77647 -4.70475,6.13256 -2.61566,9.32092 0.90877,1.38696 2.63874,2.91895 3.84418,3.4045 3.01098,1.2128 87.89452,1.26303 91.07481,0.0539 1.38204,-0.52545 3.2645,-2.10257 4.18365,-3.50536 1.38696,-2.11677 1.46885,-3.03763 0.48417,-5.41487 -0.65256,-1.57541 -2.30099,-3.37314 -3.66469,-3.99449 -1.83827,-0.83757 -24.3396,-1.22489 -46.79376,-1.1924 z m 141.85048,1.20898 c 0.74659,0.0548 0.67326,1.27684 0.20174,5.43698 -3.99637,35.25934 -18.03351,67.30157 -39.10819,89.27277 -15.32565,15.97761 -27.96772,23.7387 -60.39654,37.07643 -9.54831,3.92714 -19.17936,8.06797 -21.40244,9.2021 l -4.04174,2.06149 2.81322,-4.84699 c 14.5813,-25.11893 36.49993,-47.46503 67.75237,-69.07376 13.00076,-8.98906 14.69571,-11.97942 9.93252,-17.52543 -2.78196,-3.23917 -6.58566,-2.08447 -17.76557,5.39138 -29.63116,19.81395 -56.30752,46.19615 -68.91689,68.15492 -1.51444,2.63734 -2.95215,4.59601 -3.19443,4.35373 -0.80804,-0.80804 1.78991,-16.84115 4.3033,-26.5562 7.58202,-29.30691 21.42391,-47.94245 49.7628,-66.99706 17.79262,-11.96346 30.19689,-17.91742 59.40454,-28.50992 9.74161,-3.53291 18.57114,-6.76037 19.62018,-7.17239 0.44698,-0.17555 0.78627,-0.2863 1.03513,-0.26805 z m -284.51904,13.13303 c 0.24033,-0.002 0.55717,0.15371 0.95861,0.41727 23.94512,15.7206 50.00356,24.99047 72.91272,37.80597 5.16388,7.52158 12.03825,15.52827 21.7294,25.49782 18.57178,19.10531 21.92746,23.4498 27.92905,36.16589 4.01186,8.5003 6.72821,16.88583 8.60661,27.42253 -0.42006,-0.64032 -0.8123,-1.19727 -1.28,-2.01175 -12.60937,-21.95877 -39.28712,-48.34098 -68.91828,-68.15493 -11.17991,-7.47585 -14.98222,-8.62916 -17.76418,-5.38999 -4.76319,5.54601 -3.06963,8.53637 9.93113,17.52543 31.25244,21.60873 53.17107,43.95344 67.75237,69.07237 l 2.81461,4.84837 -4.04313,-2.06287 c -2.22308,-1.13413 -11.85413,-5.27496 -21.40244,-9.2021 -32.42882,-13.33773 -45.07089,-21.09744 -60.39654,-37.07505 -21.07468,-21.9712 -35.11182,-54.01481 -39.10819,-89.27415 -0.47152,-4.16014 -0.44271,-5.57954 0.27826,-5.58481 z m 390.69368,282.7268 c -2.59938,0.003 -6.20723,0.008 -3.02609,0.004 7.21637,-0.009 5.62546,-0.007 3.02609,-0.004 z" /></g></g></svg>
